{
	"asset":{
		"generator":"Khronos glTF Blender I/O v4.5.48",
		"version":"2.0"
	},
	"extensionsUsed":[
		"KHR_materials_unlit"
	],
	"scene":0,
	"scenes":[
		{
			"name":"Scene",
			"nodes":[
				26
			]
		}
	],
	"nodes":[
		{
			"name":"_15cf_Var2_LOD0_0",
			"rotation":[
				0.026697779074311256,
				-0.0003857649862766266,
				-0.05565362051129341,
				0.9980930685997009
			],
			"scale":[
				0.010000000707805157,
				0.010000000707805157,
				0.009999999776482582
			],
			"translation":[
				3.492039680480957,
				-0.39839959144592285,
				1.4817484617233276
			]
		},
		{
			"name":"_18f6_Var1_LOD0_1",
			"rotation":[
				-0.006821767892688513,
				-0.00047741527669131756,
				0.05261275917291641,
				0.9985916018486023
			],
			"scale":[
				0.009999998845160007,
				0.010000000707805157,
				0.010000000707805157
			],
			"translation":[
				-4.135364532470703,
				-0.12706388533115387,
				0.8333501815795898
			]
		},
		{
			"name":"_1ffc_Var3_LOD0_2",
			"rotation":[
				-0.04237134009599686,
				0.4250021278858185,
				-0.055372584611177444,
				0.9025030136108398
			],
			"scale":[
				0.009999999776482582,
				0.009999999776482582,
				0.010000000707805157
			],
			"translation":[
				2.461005926132202,
				-0.03397727757692337,
				-1.3759223222732544
			]
		},
		{
			"name":"_2688_Var3_LOD0_3",
			"rotation":[
				0.02681395597755909,
				0.0016988975694403052,
				-0.055597733706235886,
				0.9980916976928711
			],
			"scale":[
				0.009999999776482582,
				0.010000000707805157,
				0.010000000707805157
			],
			"translation":[
				2.128180980682373,
				-0.252853661775589,
				1.613884687423706
			]
		},
		{
			"name":"_3b4f_Var2_LOD0_4",
			"rotation":[
				0.70710688829422,
				0,
				0,
				0.7071066498756409
			],
			"scale":[
				0.010000000707805157,
				0.009999999776482582,
				0.009999999776482582
			],
			"translation":[
				-1.02822744846344,
				0.07849843800067902,
				2.3939926624298096
			]
		},
		{
			"name":"_7303_Var2_LOD0_5",
			"rotation":[
				0.06639854609966278,
				-0.0020261455792933702,
				-0.06751538068056107,
				0.9955043792724609
			],
			"scale":[
				0.009999998845160007,
				0.010000000707805157,
				0.010000001639127731
			],
			"translation":[
				1.8015660047531128,
				-0.28653377294540405,
				2.491201400756836
			]
		},
		{
			"mesh":0,
			"name":"Object_16",
			"translation":[
				1.7666257917881012e-05,
				0.000210493803024292,
				1.043081283569336e-05
			]
		},
		{
			"children":[
				6
			],
			"name":"_89e2_Var5_LOD0_6",
			"rotation":[
				-0.006821767892688513,
				-0.00047741527669131756,
				0.05261275917291641,
				0.9985916018486023
			],
			"scale":[
				0.009999998845160007,
				0.010000000707805157,
				0.010000000707805157
			],
			"translation":[
				-3.589526891708374,
				-0.08473201096057892,
				-0.2828712463378906
			]
		},
		{
			"name":"_8b2b_Var4_LOD0_7",
			"rotation":[
				0.026816323399543762,
				0.0017414866015315056,
				-0.05559659004211426,
				0.9980916380882263
			],
			"scale":[
				0.009999999776482582,
				0.010000000707805157,
				0.009999999776482582
			],
			"translation":[
				2.4228732585906982,
				-0.14329536259174347,
				0.4637599289417267
			]
		},
		{
			"name":"_a2c9_Var3_LOD0_8",
			"rotation":[
				0.70710688829422,
				0,
				0,
				0.7071066498756409
			],
			"scale":[
				0.010000000707805157,
				0.009999999776482582,
				0.009999999776482582
			],
			"translation":[
				2.6015801429748535,
				-0.2989848554134369,
				1.9006682634353638
			]
		},
		{
			"name":"_e0f8_Var1_LOD0_9",
			"rotation":[
				0.598304808139801,
				0.37687045335769653,
				-0.3768705129623413,
				0.598304808139801
			],
			"scale":[
				0.009999999776482582,
				0.009999999776482582,
				0.010000000707805157
			],
			"translation":[
				-2.796769618988037,
				0.03808625414967537,
				-1.8698912858963013
			]
		},
		{
			"name":"_e1f4_Var1_LOD0_10",
			"rotation":[
				0.045689668506383896,
				0.000355733121978119,
				0.014247422106564045,
				0.9988540410995483
			],
			"scale":[
				0.010000000707805157,
				0.009999999776482582,
				0.009999999776482582
			],
			"translation":[
				-4.37431001663208,
				-0.12982937693595886,
				-0.18993093073368073
			]
		},
		{
			"name":"_e74b_Var4_LOD0_11",
			"rotation":[
				0.0031012902036309242,
				0.3282410204410553,
				-0.010228350758552551,
				0.94453364610672
			],
			"scale":[
				0.010000001639127731,
				0.010000000707805157,
				0.010000000707805157
			],
			"translation":[
				1.967624306678772,
				0.04590262100100517,
				-2.1822798252105713
			]
		},
		{
			"name":"Armature_40",
			"translation":[
				-0.28044670820236206,
				0.6217880249023438,
				0
			]
		},
		{
			"name":"Aset_other__M_ufhsea0fa_LOD2_41",
			"rotation":[
				0.5163424015045166,
				0.5130487084388733,
				-0.49321067333221436,
				0.47635579109191895
			],
			"translation":[
				-0.02286204881966114,
				0.05306597426533699,
				1.6638357639312744
			]
		},
		{
			"name":"Aset_other_forest_root_M_ufhrfjefa_LOD2_42",
			"translation":[
				-0.33601218461990356,
				0.0058406344614923,
				-1.9738240242004395
			]
		},
		{
			"name":"Aset_rock_assembly_M_udxkec2fa_LOD2_43",
			"translation":[
				1.6395565271377563,
				-2.1959097385406494,
				12.345555305480957
			]
		},
		{
			"name":"Beach_44",
			"translation":[
				-0.28044670820236206,
				0,
				0
			]
		},
		{
			"name":"Palme_45",
			"rotation":[
				0.30004897713661194,
				0.6296719312667847,
				-0.6691102385520935,
				0.25646719336509705
			],
			"translation":[
				2.0760586261749268,
				0.015884699299931526,
				-1.7784734964370728
			]
		},
		{
			"name":"Plane.024_46",
			"rotation":[
				-0.01780313439667225,
				-0.9574846029281616,
				0.00352553091943264,
				0.2879129946231842
			],
			"translation":[
				2.844228744506836,
				3.5614473819732666,
				-2.0330522060394287
			]
		},
		{
			"name":"RocksSmall_47",
			"translation":[
				-11.773978233337402,
				-1.787535309791565,
				-7.852056980133057
			]
		},
		{
			"name":"Skybox_48",
			"rotation":[
				0,
				-0.923381507396698,
				0,
				0.383883535861969
			],
			"scale":[
				0.5176010131835938,
				0.517600953578949,
				0.5176010131835938
			],
			"translation":[
				-0.018692543730139732,
				-1.9684562683105469,
				0
			]
		},
		{
			"children":[
				0,
				1,
				2,
				3,
				4,
				5,
				7,
				8,
				9,
				10,
				11,
				12,
				13,
				14,
				15,
				16,
				17,
				18,
				19,
				20,
				21
			],
			"name":"GLTF_SceneRootNode",
			"rotation":[
				0.70710688829422,
				0,
				0,
				0.7071066498756409
			],
			"translation":[
				0,
				0,
				-3.814697265625e-06
			]
		},
		{
			"children":[
				22
			],
			"name":"root",
			"translation":[
				0,
				0,
				-3.814697265625e-06
			]
		},
		{
			"children":[
				23
			],
			"name":"Sketchfab_model",
			"rotation":[
				-0.70710688829422,
				0,
				0,
				0.7071066498756409
			],
			"translation":[
				0,
				-3.814697265625e-06,
				0
			]
		},
		{
			"name":"Spiral.002_39",
			"translation":[
				0,
				-3.814697265625e-06,
				0
			]
		},
		{
			"children":[
				24,
				25
			],
			"name":"Empty",
			"scale":[
				0.17348086833953857,
				0.17348086833953857,
				0.17348086833953857
			],
			"translation":[
				0,
				10.451717376708984,
				0
			]
		}
	],
	"materials":[
		{
			"alphaMode":"MASK",
			"doubleSided":true,
			"extensions":{
				"KHR_materials_unlit":{}
			},
			"name":"Areca_Palm",
			"pbrMetallicRoughness":{
				"baseColorTexture":{
					"index":0
				},
				"metallicFactor":0,
				"roughnessFactor":0.9
			}
		},
		{
			"alphaMode":"MASK",
			"doubleSided":true,
			"extensions":{
				"KHR_materials_unlit":{}
			},
			"name":"Cat_Palm",
			"pbrMetallicRoughness":{
				"baseColorTexture":{
					"index":1
				},
				"metallicFactor":0,
				"roughnessFactor":0.9
			}
		},
		{
			"alphaMode":"MASK",
			"doubleSided":true,
			"extensions":{
				"KHR_materials_unlit":{}
			},
			"name":"Tropical_Palm",
			"pbrMetallicRoughness":{
				"baseColorTexture":{
					"index":2
				},
				"metallicFactor":0,
				"roughnessFactor":0.9
			}
		},
		{
			"doubleSided":true,
			"extensions":{
				"KHR_materials_unlit":{}
			},
			"name":"Treibholz",
			"pbrMetallicRoughness":{
				"baseColorTexture":{
					"index":3
				},
				"metallicFactor":0,
				"roughnessFactor":0.9
			}
		},
		{
			"doubleSided":true,
			"extensions":{
				"KHR_materials_unlit":{}
			},
			"name":"Root",
			"pbrMetallicRoughness":{
				"baseColorTexture":{
					"index":4
				},
				"metallicFactor":0,
				"roughnessFactor":0.9
			}
		},
		{
			"doubleSided":true,
			"extensions":{
				"KHR_materials_unlit":{}
			},
			"name":"Palme",
			"pbrMetallicRoughness":{
				"baseColorTexture":{
					"index":5
				},
				"metallicFactor":0,
				"roughnessFactor":0.9
			}
		},
		{
			"alphaMode":"MASK",
			"doubleSided":true,
			"extensions":{
				"KHR_materials_unlit":{}
			},
			"name":"Palme_Blaetter",
			"pbrMetallicRoughness":{
				"baseColorTexture":{
					"index":6
				},
				"metallicFactor":0,
				"roughnessFactor":0.9
			}
		},
		{
			"doubleSided":true,
			"extensions":{
				"KHR_materials_unlit":{}
			},
			"name":"RocksSmall",
			"pbrMetallicRoughness":{
				"baseColorTexture":{
					"index":7
				},
				"metallicFactor":0,
				"roughnessFactor":0.9
			}
		},
		{
			"doubleSided":true,
			"extensions":{
				"KHR_materials_unlit":{}
			},
			"name":"RocksBig",
			"pbrMetallicRoughness":{
				"baseColorTexture":{
					"index":8
				},
				"metallicFactor":0,
				"roughnessFactor":0.9
			}
		},
		{
			"doubleSided":true,
			"extensions":{
				"KHR_materials_unlit":{}
			},
			"name":"BeachBaked",
			"pbrMetallicRoughness":{
				"baseColorTexture":{
					"index":9
				},
				"metallicFactor":0,
				"roughnessFactor":0.9
			}
		}
	],
	"meshes":[
		{
			"name":"Object_6",
			"primitives":[
				{
					"attributes":{
						"POSITION":0,
						"NORMAL":1,
						"TEXCOORD_0":2,
						"TEXCOORD_1":3
					},
					"indices":4,
					"material":0
				},
				{
					"attributes":{
						"POSITION":5,
						"NORMAL":6,
						"TEXCOORD_0":7,
						"TEXCOORD_1":8
					},
					"indices":9,
					"material":1
				},
				{
					"attributes":{
						"POSITION":10,
						"NORMAL":11,
						"TEXCOORD_0":12,
						"TEXCOORD_1":13
					},
					"indices":14,
					"material":2
				},
				{
					"attributes":{
						"POSITION":15,
						"NORMAL":16,
						"TEXCOORD_0":17,
						"TEXCOORD_1":18
					},
					"indices":19,
					"material":3
				},
				{
					"attributes":{
						"POSITION":20,
						"NORMAL":21,
						"TEXCOORD_0":22,
						"TEXCOORD_1":23
					},
					"indices":24,
					"material":4
				},
				{
					"attributes":{
						"POSITION":25,
						"NORMAL":26,
						"TEXCOORD_0":27,
						"TEXCOORD_1":28
					},
					"indices":29,
					"material":5
				},
				{
					"attributes":{
						"POSITION":30,
						"NORMAL":31,
						"TEXCOORD_0":32,
						"TEXCOORD_1":33
					},
					"indices":34,
					"material":6
				},
				{
					"attributes":{
						"POSITION":35,
						"NORMAL":36,
						"TEXCOORD_0":37,
						"TEXCOORD_1":38
					},
					"indices":39,
					"material":7
				},
				{
					"attributes":{
						"POSITION":40,
						"NORMAL":41,
						"TEXCOORD_0":42,
						"TEXCOORD_1":43
					},
					"indices":44,
					"material":8
				},
				{
					"attributes":{
						"POSITION":45,
						"NORMAL":46,
						"TEXCOORD_0":47,
						"TEXCOORD_1":48
					},
					"indices":49,
					"material":9
				}
			]
		}
	],
	"textures":[
		{
			"sampler":0,
			"source":0
		},
		{
			"sampler":0,
			"source":1
		},
		{
			"sampler":0,
			"source":2
		},
		{
			"sampler":0,
			"source":3
		},
		{
			"sampler":0,
			"source":4
		},
		{
			"sampler":0,
			"source":5
		},
		{
			"sampler":0,
			"source":6
		},
		{
			"sampler":0,
			"source":7
		},
		{
			"sampler":0,
			"source":8
		},
		{
			"sampler":0,
			"source":9
		}
	],
	"images":[
		{
			"mimeType":"image/png",
			"name":"Areca_Palm_baseColor",
			"uri":"Areca_Palm_baseColor.png"
		},
		{
			"mimeType":"image/png",
			"name":"Cat_Palm_baseColor",
			"uri":"Cat_Palm_baseColor.png"
		},
		{
			"mimeType":"image/png",
			"name":"Tropical_Palm_baseColor",
			"uri":"Tropical_Palm_baseColor.png"
		},
		{
			"mimeType":"image/jpeg",
			"name":"Treibholz_baseColor",
			"uri":"Treibholz_baseColor.jpg"
		},
		{
			"mimeType":"image/jpeg",
			"name":"Root_baseColor",
			"uri":"Root_baseColor.jpg"
		},
		{
			"mimeType":"image/jpeg",
			"name":"Palme_baseColor",
			"uri":"Palme_baseColor.jpg"
		},
		{
			"mimeType":"image/png",
			"name":"Palme_Blaetter_baseColor",
			"uri":"Palme_Blaetter_baseColor.png"
		},
		{
			"mimeType":"image/jpeg",
			"name":"RocksSmall_baseColor",
			"uri":"RocksSmall_baseColor.jpg"
		},
		{
			"mimeType":"image/jpeg",
			"name":"RocksBig_baseColor",
			"uri":"RocksBig_baseColor.jpg"
		},
		{
			"mimeType":"image/jpeg",
			"name":"BeachBaked_baseColor",
			"uri":"BeachBaked_baseColor.jpg"
		}
	],
	"accessors":[
		{
			"bufferView":0,
			"componentType":5126,
			"count":12274,
			"max":[
				732.7247314453125,
				249.95068359375,
				343.45941162109375
			],
			"min":[
				-143.84176635742188,
				-85.46490478515625,
				-221.7098846435547
			],
			"type":"VEC3"
		},
		{
			"bufferView":1,
			"componentType":5126,
			"count":12274,
			"type":"VEC3"
		},
		{
			"bufferView":2,
			"componentType":5126,
			"count":12274,
			"type":"VEC2"
		},
		{
			"bufferView":3,
			"componentType":5126,
			"count":12274,
			"type":"VEC2"
		},
		{
			"bufferView":4,
			"componentType":5123,
			"count":31461,
			"type":"SCALAR"
		},
		{
			"bufferView":5,
			"componentType":5126,
			"count":5272,
			"max":[
				756.5682983398438,
				159.13739013671875,
				228.1706085205078
			],
			"min":[
				-136.22853088378906,
				-108.76409912109375,
				-211.0069580078125
			],
			"type":"VEC3"
		},
		{
			"bufferView":6,
			"componentType":5126,
			"count":5272,
			"type":"VEC3"
		},
		{
			"bufferView":7,
			"componentType":5126,
			"count":5272,
			"type":"VEC2"
		},
		{
			"bufferView":8,
			"componentType":5126,
			"count":5272,
			"type":"VEC2"
		},
		{
			"bufferView":9,
			"componentType":5123,
			"count":25542,
			"type":"SCALAR"
		},
		{
			"bufferView":10,
			"componentType":5126,
			"count":18986,
			"max":[
				812.79248046875,
				184.4646759033203,
				422.67486572265625
			],
			"min":[
				-89.84017944335938,
				-95.03045654296875,
				-287.8045654296875
			],
			"type":"VEC3"
		},
		{
			"bufferView":11,
			"componentType":5126,
			"count":18986,
			"type":"VEC3"
		},
		{
			"bufferView":12,
			"componentType":5126,
			"count":18986,
			"type":"VEC2"
		},
		{
			"bufferView":13,
			"componentType":5126,
			"count":18986,
			"type":"VEC2"
		},
		{
			"bufferView":14,
			"componentType":5123,
			"count":81528,
			"type":"SCALAR"
		},
		{
			"bufferView":15,
			"componentType":5126,
			"count":5650,
			"max":[
				509.64215087890625,
				34.604148864746094,
				247.63516235351562
			],
			"min":[
				196.66970825195312,
				-66.45185852050781,
				114.58629608154297
			],
			"type":"VEC3"
		},
		{
			"bufferView":16,
			"componentType":5126,
			"count":5650,
			"type":"VEC3"
		},
		{
			"bufferView":17,
			"componentType":5126,
			"count":5650,
			"type":"VEC2"
		},
		{
			"bufferView":18,
			"componentType":5126,
			"count":5650,
			"type":"VEC2"
		},
		{
			"bufferView":19,
			"componentType":5123,
			"count":25248,
			"type":"SCALAR"
		},
		{
			"bufferView":20,
			"componentType":5126,
			"count":2871,
			"max":[
				541.2012939453125,
				16.314952850341797,
				-67.60114288330078
			],
			"min":[
				106.30055236816406,
				-47.019264221191406,
				-274.0058898925781
			],
			"type":"VEC3"
		},
		{
			"bufferView":21,
			"componentType":5126,
			"count":2871,
			"type":"VEC3"
		},
		{
			"bufferView":22,
			"componentType":5126,
			"count":2871,
			"type":"VEC2"
		},
		{
			"bufferView":23,
			"componentType":5126,
			"count":2871,
			"type":"VEC2"
		},
		{
			"bufferView":24,
			"componentType":5123,
			"count":16041,
			"type":"SCALAR"
		},
		{
			"bufferView":25,
			"componentType":5126,
			"count":3080,
			"max":[
				682.3245239257812,
				545.4874267578125,
				272.275390625
			],
			"min":[
				-19.87042236328125,
				-56.507015228271484,
				-187.66140747070312
			],
			"type":"VEC3"
		},
		{
			"bufferView":26,
			"componentType":5126,
			"count":3080,
			"type":"VEC3"
		},
		{
			"bufferView":27,
			"componentType":5126,
			"count":3080,
			"type":"VEC2"
		},
		{
			"bufferView":28,
			"componentType":5126,
			"count":3080,
			"type":"VEC2"
		},
		{
			"bufferView":29,
			"componentType":5123,
			"count":13644,
			"type":"SCALAR"
		},
		{
			"bufferView":30,
			"componentType":5126,
			"count":490,
			"max":[
				840.4005126953125,
				617.5033569335938,
				299.0350036621094
			],
			"min":[
				-90.70599365234375,
				192.89962768554688,
				-332.1676025390625
			],
			"type":"VEC3"
		},
		{
			"bufferView":31,
			"componentType":5126,
			"count":490,
			"type":"VEC3"
		},
		{
			"bufferView":32,
			"componentType":5126,
			"count":490,
			"type":"VEC2"
		},
		{
			"bufferView":33,
			"componentType":5126,
			"count":490,
			"type":"VEC2"
		},
		{
			"bufferView":34,
			"componentType":5123,
			"count":1182,
			"type":"SCALAR"
		},
		{
			"bufferView":35,
			"componentType":5126,
			"count":12620,
			"max":[
				2168.08203125,
				182.7903594970703,
				49.2125244140625
			],
			"min":[
				-1632.191650390625,
				-511.61895751953125,
				-1678.8095703125
			],
			"type":"VEC3"
		},
		{
			"bufferView":36,
			"componentType":5126,
			"count":12620,
			"type":"VEC3"
		},
		{
			"bufferView":37,
			"componentType":5126,
			"count":12620,
			"type":"VEC2"
		},
		{
			"bufferView":38,
			"componentType":5126,
			"count":12620,
			"type":"VEC2"
		},
		{
			"bufferView":39,
			"componentType":5123,
			"count":63360,
			"type":"SCALAR"
		},
		{
			"bufferView":40,
			"componentType":5126,
			"count":5662,
			"max":[
				2205.494384765625,
				365.13763427734375,
				2425.374267578125
			],
			"min":[
				-1305.688720703125,
				-584.2158203125,
				84.042724609375
			],
			"type":"VEC3"
		},
		{
			"bufferView":41,
			"componentType":5126,
			"count":5662,
			"type":"VEC3"
		},
		{
			"bufferView":42,
			"componentType":5126,
			"count":5662,
			"type":"VEC2"
		},
		{
			"bufferView":43,
			"componentType":5126,
			"count":5662,
			"type":"VEC2"
		},
		{
			"bufferView":44,
			"componentType":5123,
			"count":30798,
			"type":"SCALAR"
		},
		{
			"bufferView":45,
			"componentType":5126,
			"count":208,
			"max":[
				3191.844482421875,
				27.630722045898438,
				2189.49365234375
			],
			"min":[
				-2856.81982421875,
				-796.3624267578125,
				-2480.090087890625
			],
			"type":"VEC3"
		},
		{
			"bufferView":46,
			"componentType":5126,
			"count":208,
			"type":"VEC3"
		},
		{
			"bufferView":47,
			"componentType":5126,
			"count":208,
			"type":"VEC2"
		},
		{
			"bufferView":48,
			"componentType":5126,
			"count":208,
			"type":"VEC2"
		},
		{
			"bufferView":49,
			"componentType":5123,
			"count":1176,
			"type":"SCALAR"
		}
	],
	"bufferViews":[
		{
			"buffer":0,
			"byteLength":147288,
			"byteOffset":0,
			"target":34962
		},
		{
			"buffer":0,
			"byteLength":147288,
			"byteOffset":147288,
			"target":34962
		},
		{
			"buffer":0,
			"byteLength":98192,
			"byteOffset":294576,
			"target":34962
		},
		{
			"buffer":0,
			"byteLength":98192,
			"byteOffset":392768,
			"target":34962
		},
		{
			"buffer":0,
			"byteLength":62922,
			"byteOffset":490960,
			"target":34963
		},
		{
			"buffer":0,
			"byteLength":63264,
			"byteOffset":553884,
			"target":34962
		},
		{
			"buffer":0,
			"byteLength":63264,
			"byteOffset":617148,
			"target":34962
		},
		{
			"buffer":0,
			"byteLength":42176,
			"byteOffset":680412,
			"target":34962
		},
		{
			"buffer":0,
			"byteLength":42176,
			"byteOffset":722588,
			"target":34962
		},
		{
			"buffer":0,
			"byteLength":51084,
			"byteOffset":764764,
			"target":34963
		},
		{
			"buffer":0,
			"byteLength":227832,
			"byteOffset":815848,
			"target":34962
		},
		{
			"buffer":0,
			"byteLength":227832,
			"byteOffset":1043680,
			"target":34962
		},
		{
			"buffer":0,
			"byteLength":151888,
			"byteOffset":1271512,
			"target":34962
		},
		{
			"buffer":0,
			"byteLength":151888,
			"byteOffset":1423400,
			"target":34962
		},
		{
			"buffer":0,
			"byteLength":163056,
			"byteOffset":1575288,
			"target":34963
		},
		{
			"buffer":0,
			"byteLength":67800,
			"byteOffset":1738344,
			"target":34962
		},
		{
			"buffer":0,
			"byteLength":67800,
			"byteOffset":1806144,
			"target":34962
		},
		{
			"buffer":0,
			"byteLength":45200,
			"byteOffset":1873944,
			"target":34962
		},
		{
			"buffer":0,
			"byteLength":45200,
			"byteOffset":1919144,
			"target":34962
		},
		{
			"buffer":0,
			"byteLength":50496,
			"byteOffset":1964344,
			"target":34963
		},
		{
			"buffer":0,
			"byteLength":34452,
			"byteOffset":2014840,
			"target":34962
		},
		{
			"buffer":0,
			"byteLength":34452,
			"byteOffset":2049292,
			"target":34962
		},
		{
			"buffer":0,
			"byteLength":22968,
			"byteOffset":2083744,
			"target":34962
		},
		{
			"buffer":0,
			"byteLength":22968,
			"byteOffset":2106712,
			"target":34962
		},
		{
			"buffer":0,
			"byteLength":32082,
			"byteOffset":2129680,
			"target":34963
		},
		{
			"buffer":0,
			"byteLength":36960,
			"byteOffset":2161764,
			"target":34962
		},
		{
			"buffer":0,
			"byteLength":36960,
			"byteOffset":2198724,
			"target":34962
		},
		{
			"buffer":0,
			"byteLength":24640,
			"byteOffset":2235684,
			"target":34962
		},
		{
			"buffer":0,
			"byteLength":24640,
			"byteOffset":2260324,
			"target":34962
		},
		{
			"buffer":0,
			"byteLength":27288,
			"byteOffset":2284964,
			"target":34963
		},
		{
			"buffer":0,
			"byteLength":5880,
			"byteOffset":2312252,
			"target":34962
		},
		{
			"buffer":0,
			"byteLength":5880,
			"byteOffset":2318132,
			"target":34962
		},
		{
			"buffer":0,
			"byteLength":3920,
			"byteOffset":2324012,
			"target":34962
		},
		{
			"buffer":0,
			"byteLength":3920,
			"byteOffset":2327932,
			"target":34962
		},
		{
			"buffer":0,
			"byteLength":2364,
			"byteOffset":2331852,
			"target":34963
		},
		{
			"buffer":0,
			"byteLength":151440,
			"byteOffset":2334216,
			"target":34962
		},
		{
			"buffer":0,
			"byteLength":151440,
			"byteOffset":2485656,
			"target":34962
		},
		{
			"buffer":0,
			"byteLength":100960,
			"byteOffset":2637096,
			"target":34962
		},
		{
			"buffer":0,
			"byteLength":100960,
			"byteOffset":2738056,
			"target":34962
		},
		{
			"buffer":0,
			"byteLength":126720,
			"byteOffset":2839016,
			"target":34963
		},
		{
			"buffer":0,
			"byteLength":67944,
			"byteOffset":2965736,
			"target":34962
		},
		{
			"buffer":0,
			"byteLength":67944,
			"byteOffset":3033680,
			"target":34962
		},
		{
			"buffer":0,
			"byteLength":45296,
			"byteOffset":3101624,
			"target":34962
		},
		{
			"buffer":0,
			"byteLength":45296,
			"byteOffset":3146920,
			"target":34962
		},
		{
			"buffer":0,
			"byteLength":61596,
			"byteOffset":3192216,
			"target":34963
		},
		{
			"buffer":0,
			"byteLength":2496,
			"byteOffset":3253812,
			"target":34962
		},
		{
			"buffer":0,
			"byteLength":2496,
			"byteOffset":3256308,
			"target":34962
		},
		{
			"buffer":0,
			"byteLength":1664,
			"byteOffset":3258804,
			"target":34962
		},
		{
			"buffer":0,
			"byteLength":1664,
			"byteOffset":3260468,
			"target":34962
		},
		{
			"buffer":0,
			"byteLength":2352,
			"byteOffset":3262132,
			"target":34963
		}
	],
	"samplers":[
		{
			"magFilter":9729,
			"minFilter":9987
		}
	],
	"buffers":[
		{
			"byteLength":3264484,
			"uri":"Island.bin"
		}
	]
}
