{
	"asset":{
		"generator":"Khronos glTF Blender I/O v4.5.48",
		"version":"2.0"
	},
	"extensionsUsed":[
		"KHR_materials_unlit"
	],
	"scene":0,
	"scenes":[
		{
			"name":"Scene",
			"nodes":[
				1
			]
		}
	],
	"nodes":[
		{
			"mesh":0,
			"name":"Object_66",
			"translation":[
				0,
				-0.5305023193359375,
				0
			]
		},
		{
			"children":[
				0
			],
			"name":"Empty",
			"scale":[
				0.1620328426361084,
				0.1620328426361084,
				0.1620328426361084
			],
			"translation":[
				0,
				10.63554573059082,
				0
			]
		}
	],
	"materials":[
		{
			"doubleSided":true,
			"extensions":{
				"KHR_materials_unlit":{}
			},
			"name":"BeachBaked.001",
			"pbrMetallicRoughness":{
				"baseColorTexture":{
					"index":0
				},
				"metallicFactor":0,
				"roughnessFactor":0.9
			}
		},
		{
			"alphaMode":"MASK",
			"doubleSided":true,
			"extensions":{
				"KHR_materials_unlit":{}
			},
			"name":"Cat_Palm.001",
			"pbrMetallicRoughness":{
				"baseColorTexture":{
					"index":1
				},
				"metallicFactor":0,
				"roughnessFactor":0.9
			}
		},
		{
			"alphaMode":"MASK",
			"doubleSided":true,
			"extensions":{
				"KHR_materials_unlit":{}
			},
			"name":"Areca_Palm.001",
			"pbrMetallicRoughness":{
				"baseColorTexture":{
					"index":2
				},
				"metallicFactor":0,
				"roughnessFactor":0.9
			}
		},
		{
			"alphaMode":"MASK",
			"doubleSided":true,
			"extensions":{
				"KHR_materials_unlit":{}
			},
			"name":"Tropical_Palm.001",
			"pbrMetallicRoughness":{
				"baseColorTexture":{
					"index":3
				},
				"metallicFactor":0,
				"roughnessFactor":0.9
			}
		},
		{
			"doubleSided":true,
			"extensions":{
				"KHR_materials_unlit":{}
			},
			"name":"Treibholz.001",
			"pbrMetallicRoughness":{
				"baseColorTexture":{
					"index":4
				},
				"metallicFactor":0,
				"roughnessFactor":0.9
			}
		},
		{
			"doubleSided":true,
			"extensions":{
				"KHR_materials_unlit":{}
			},
			"name":"Root.001",
			"pbrMetallicRoughness":{
				"baseColorTexture":{
					"index":5
				},
				"metallicFactor":0,
				"roughnessFactor":0.9
			}
		},
		{
			"doubleSided":true,
			"extensions":{
				"KHR_materials_unlit":{}
			},
			"name":"RocksBig.001",
			"pbrMetallicRoughness":{
				"baseColorTexture":{
					"index":6
				},
				"metallicFactor":0,
				"roughnessFactor":0.9
			}
		},
		{
			"doubleSided":true,
			"extensions":{
				"KHR_materials_unlit":{}
			},
			"name":"Palme.001",
			"pbrMetallicRoughness":{
				"baseColorTexture":{
					"index":7
				},
				"metallicFactor":0,
				"roughnessFactor":0.9
			}
		},
		{
			"alphaMode":"MASK",
			"doubleSided":true,
			"extensions":{
				"KHR_materials_unlit":{}
			},
			"name":"Palme_Blaetter.001",
			"pbrMetallicRoughness":{
				"baseColorTexture":{
					"index":8
				},
				"metallicFactor":0,
				"roughnessFactor":0.9
			}
		},
		{
			"doubleSided":true,
			"extensions":{
				"KHR_materials_unlit":{}
			},
			"name":"RocksSmall.001",
			"pbrMetallicRoughness":{
				"baseColorTexture":{
					"index":9
				},
				"metallicFactor":0,
				"roughnessFactor":0.9
			}
		}
	],
	"meshes":[
		{
			"name":"Object_16",
			"primitives":[
				{
					"attributes":{
						"POSITION":0,
						"NORMAL":1,
						"TEXCOORD_0":2,
						"TEXCOORD_1":3
					},
					"indices":4,
					"material":0
				},
				{
					"attributes":{
						"POSITION":5,
						"NORMAL":6,
						"TEXCOORD_0":7,
						"TEXCOORD_1":8
					},
					"indices":9,
					"material":1
				},
				{
					"attributes":{
						"POSITION":10,
						"NORMAL":11,
						"TEXCOORD_0":12,
						"TEXCOORD_1":13
					},
					"indices":14,
					"material":2
				},
				{
					"attributes":{
						"POSITION":15,
						"NORMAL":16,
						"TEXCOORD_0":17,
						"TEXCOORD_1":18
					},
					"indices":19,
					"material":3
				},
				{
					"attributes":{
						"POSITION":20,
						"NORMAL":21,
						"TEXCOORD_0":22,
						"TEXCOORD_1":23
					},
					"indices":24,
					"material":4
				},
				{
					"attributes":{
						"POSITION":25,
						"NORMAL":26,
						"TEXCOORD_0":27,
						"TEXCOORD_1":28
					},
					"indices":29,
					"material":5
				},
				{
					"attributes":{
						"POSITION":30,
						"NORMAL":31,
						"TEXCOORD_0":32,
						"TEXCOORD_1":33
					},
					"indices":34,
					"material":6
				},
				{
					"attributes":{
						"POSITION":35,
						"NORMAL":36,
						"TEXCOORD_0":37,
						"TEXCOORD_1":38
					},
					"indices":39,
					"material":7
				},
				{
					"attributes":{
						"POSITION":40,
						"NORMAL":41,
						"TEXCOORD_0":42,
						"TEXCOORD_1":43
					},
					"indices":44,
					"material":8
				},
				{
					"attributes":{
						"POSITION":45,
						"NORMAL":46,
						"TEXCOORD_0":47,
						"TEXCOORD_1":48
					},
					"indices":49,
					"material":9
				}
			]
		}
	],
	"textures":[
		{
			"sampler":0,
			"source":0
		},
		{
			"sampler":0,
			"source":1
		},
		{
			"sampler":0,
			"source":2
		},
		{
			"sampler":0,
			"source":3
		},
		{
			"sampler":0,
			"source":4
		},
		{
			"sampler":0,
			"source":5
		},
		{
			"sampler":0,
			"source":6
		},
		{
			"sampler":0,
			"source":7
		},
		{
			"sampler":0,
			"source":8
		},
		{
			"sampler":0,
			"source":9
		}
	],
	"images":[
		{
			"mimeType":"image/jpeg",
			"name":"BeachBaked_baseColor",
			"uri":"BeachBaked_baseColor.jpg"
		},
		{
			"mimeType":"image/png",
			"name":"Cat_Palm_baseColor",
			"uri":"Cat_Palm_baseColor.png"
		},
		{
			"mimeType":"image/png",
			"name":"Areca_Palm_baseColor",
			"uri":"Areca_Palm_baseColor.png"
		},
		{
			"mimeType":"image/png",
			"name":"Tropical_Palm_baseColor",
			"uri":"Tropical_Palm_baseColor.png"
		},
		{
			"mimeType":"image/jpeg",
			"name":"Treibholz_baseColor",
			"uri":"Treibholz_baseColor.jpg"
		},
		{
			"mimeType":"image/jpeg",
			"name":"Root_baseColor",
			"uri":"Root_baseColor.jpg"
		},
		{
			"mimeType":"image/jpeg",
			"name":"RocksBig_baseColor",
			"uri":"RocksBig_baseColor.jpg"
		},
		{
			"mimeType":"image/jpeg",
			"name":"Palme_baseColor",
			"uri":"Palme_baseColor.jpg"
		},
		{
			"mimeType":"image/png",
			"name":"Palme_Blaetter_baseColor",
			"uri":"Palme_Blaetter_baseColor.png"
		},
		{
			"mimeType":"image/jpeg",
			"name":"RocksSmall_baseColor",
			"uri":"RocksSmall_baseColor.jpg"
		}
	],
	"accessors":[
		{
			"bufferView":0,
			"componentType":5126,
			"count":208,
			"max":[
				29.237930297851562,
				0.1601794958114624,
				21.645938873291016
			],
			"min":[
				-31.641708374023438,
				-5.0312910079956055,
				-25.032821655273438
			],
			"type":"VEC3"
		},
		{
			"bufferView":1,
			"componentType":5126,
			"count":208,
			"type":"VEC3"
		},
		{
			"bufferView":2,
			"componentType":5126,
			"count":208,
			"type":"VEC2"
		},
		{
			"bufferView":3,
			"componentType":5126,
			"count":208,
			"type":"VEC2"
		},
		{
			"bufferView":4,
			"componentType":5123,
			"count":1176,
			"type":"SCALAR"
		},
		{
			"bufferView":5,
			"componentType":5126,
			"count":5272,
			"max":[
				4.282479286193848,
				1.4496822357177734,
				2.0088753700256348
			],
			"min":[
				-4.747182846069336,
				-0.4039909839630127,
				-2.3913114070892334
			],
			"type":"VEC3"
		},
		{
			"bufferView":6,
			"componentType":5126,
			"count":5272,
			"type":"VEC3"
		},
		{
			"bufferView":7,
			"componentType":5126,
			"count":5272,
			"type":"VEC2"
		},
		{
			"bufferView":8,
			"componentType":5126,
			"count":5272,
			"type":"VEC2"
		},
		{
			"bufferView":9,
			"componentType":5123,
			"count":25542,
			"type":"SCALAR"
		},
		{
			"bufferView":10,
			"componentType":5126,
			"count":12159,
			"max":[
				3.9578986167907715,
				2.5066978931427,
				3.1606593132019043
			],
			"min":[
				-4.755839824676514,
				-0.2950171232223511,
				-2.506424903869629
			],
			"type":"VEC3"
		},
		{
			"bufferView":11,
			"componentType":5126,
			"count":12159,
			"type":"VEC3"
		},
		{
			"bufferView":12,
			"componentType":5126,
			"count":12159,
			"type":"VEC2"
		},
		{
			"bufferView":13,
			"componentType":5126,
			"count":12159,
			"type":"VEC2"
		},
		{
			"bufferView":14,
			"componentType":5123,
			"count":31461,
			"type":"SCALAR"
		},
		{
			"bufferView":15,
			"componentType":5126,
			"count":18937,
			"max":[
				4.768804550170898,
				1.806652307510376,
				3.94242262840271
			],
			"min":[
				-4.310434818267822,
				-0.35614317655563354,
				-3.1804897785186768
			],
			"type":"VEC3"
		},
		{
			"bufferView":16,
			"componentType":5126,
			"count":18937,
			"type":"VEC3"
		},
		{
			"bufferView":17,
			"componentType":5126,
			"count":18937,
			"type":"VEC2"
		},
		{
			"bufferView":18,
			"componentType":5126,
			"count":18937,
			"type":"VEC2"
		},
		{
			"bufferView":19,
			"componentType":5123,
			"count":81528,
			"type":"SCALAR"
		},
		{
			"bufferView":20,
			"componentType":5126,
			"count":5650,
			"max":[
				1.8253964185714722,
				0.5669011473655701,
				2.190948009490967
			],
			"min":[
				-1.3323354721069336,
				-0.190129816532135,
				0.8692944049835205
			],
			"type":"VEC3"
		},
		{
			"bufferView":21,
			"componentType":5126,
			"count":5650,
			"type":"VEC3"
		},
		{
			"bufferView":22,
			"componentType":5126,
			"count":5650,
			"type":"VEC2"
		},
		{
			"bufferView":23,
			"componentType":5126,
			"count":5650,
			"type":"VEC2"
		},
		{
			"bufferView":24,
			"componentType":5123,
			"count":25248,
			"type":"SCALAR"
		},
		{
			"bufferView":25,
			"componentType":5126,
			"count":2871,
			"max":[
				2.1246728897094727,
				0.4305717647075653,
				-0.9562385082244873
			],
			"min":[
				-2.248310089111328,
				-0.06092464551329613,
				-3.022073745727539
			],
			"type":"VEC3"
		},
		{
			"bufferView":26,
			"componentType":5126,
			"count":2871,
			"type":"VEC3"
		},
		{
			"bufferView":27,
			"componentType":5126,
			"count":2871,
			"type":"VEC2"
		},
		{
			"bufferView":28,
			"componentType":5126,
			"count":2871,
			"type":"VEC2"
		},
		{
			"bufferView":29,
			"componentType":5123,
			"count":16041,
			"type":"SCALAR"
		},
		{
			"bufferView":30,
			"componentType":5126,
			"count":5662,
			"max":[
				19.129955291748047,
				3.285069465637207,
				24.04770278930664
			],
			"min":[
				-16.214475631713867,
				-3.787956953048706,
				0.5965375900268555
			],
			"type":"VEC3"
		},
		{
			"bufferView":31,
			"componentType":5126,
			"count":5662,
			"type":"VEC3"
		},
		{
			"bufferView":32,
			"componentType":5126,
			"count":5662,
			"type":"VEC2"
		},
		{
			"bufferView":33,
			"componentType":5126,
			"count":5662,
			"type":"VEC2"
		},
		{
			"bufferView":34,
			"componentType":5123,
			"count":30798,
			"type":"SCALAR"
		},
		{
			"bufferView":35,
			"componentType":5126,
			"count":3079,
			"max":[
				3.183664321899414,
				5.508798599243164,
				2.4447507858276367
			],
			"min":[
				-3.475846767425537,
				-0.4943840205669403,
				-2.1516056060791016
			],
			"type":"VEC3"
		},
		{
			"bufferView":36,
			"componentType":5126,
			"count":3079,
			"type":"VEC3"
		},
		{
			"bufferView":37,
			"componentType":5126,
			"count":3079,
			"type":"VEC2"
		},
		{
			"bufferView":38,
			"componentType":5126,
			"count":3079,
			"type":"VEC2"
		},
		{
			"bufferView":39,
			"componentType":5123,
			"count":13644,
			"type":"SCALAR"
		},
		{
			"bufferView":40,
			"componentType":5126,
			"count":490,
			"max":[
				4.760845184326172,
				6.069604873657227,
				2.6317741870880127
			],
			"min":[
				-4.842477798461914,
				2.58457088470459,
				-3.6425764560699463
			],
			"type":"VEC3"
		},
		{
			"bufferView":41,
			"componentType":5126,
			"count":490,
			"type":"VEC3"
		},
		{
			"bufferView":42,
			"componentType":5126,
			"count":490,
			"type":"VEC2"
		},
		{
			"bufferView":43,
			"componentType":5126,
			"count":490,
			"type":"VEC2"
		},
		{
			"bufferView":44,
			"componentType":5123,
			"count":1182,
			"type":"SCALAR"
		},
		{
			"bufferView":45,
			"componentType":5126,
			"count":12620,
			"max":[
				18.792617797851562,
				0.38393187522888184,
				0.25619983673095703
			],
			"min":[
				-19.47374153137207,
				-3.0501363277435303,
				-17.019174575805664
			],
			"type":"VEC3"
		},
		{
			"bufferView":46,
			"componentType":5126,
			"count":12620,
			"type":"VEC3"
		},
		{
			"bufferView":47,
			"componentType":5126,
			"count":12620,
			"type":"VEC2"
		},
		{
			"bufferView":48,
			"componentType":5126,
			"count":12620,
			"type":"VEC2"
		},
		{
			"bufferView":49,
			"componentType":5123,
			"count":63360,
			"type":"SCALAR"
		}
	],
	"bufferViews":[
		{
			"buffer":0,
			"byteLength":2496,
			"byteOffset":0,
			"target":34962
		},
		{
			"buffer":0,
			"byteLength":2496,
			"byteOffset":2496,
			"target":34962
		},
		{
			"buffer":0,
			"byteLength":1664,
			"byteOffset":4992,
			"target":34962
		},
		{
			"buffer":0,
			"byteLength":1664,
			"byteOffset":6656,
			"target":34962
		},
		{
			"buffer":0,
			"byteLength":2352,
			"byteOffset":8320,
			"target":34963
		},
		{
			"buffer":0,
			"byteLength":63264,
			"byteOffset":10672,
			"target":34962
		},
		{
			"buffer":0,
			"byteLength":63264,
			"byteOffset":73936,
			"target":34962
		},
		{
			"buffer":0,
			"byteLength":42176,
			"byteOffset":137200,
			"target":34962
		},
		{
			"buffer":0,
			"byteLength":42176,
			"byteOffset":179376,
			"target":34962
		},
		{
			"buffer":0,
			"byteLength":51084,
			"byteOffset":221552,
			"target":34963
		},
		{
			"buffer":0,
			"byteLength":145908,
			"byteOffset":272636,
			"target":34962
		},
		{
			"buffer":0,
			"byteLength":145908,
			"byteOffset":418544,
			"target":34962
		},
		{
			"buffer":0,
			"byteLength":97272,
			"byteOffset":564452,
			"target":34962
		},
		{
			"buffer":0,
			"byteLength":97272,
			"byteOffset":661724,
			"target":34962
		},
		{
			"buffer":0,
			"byteLength":62922,
			"byteOffset":758996,
			"target":34963
		},
		{
			"buffer":0,
			"byteLength":227244,
			"byteOffset":821920,
			"target":34962
		},
		{
			"buffer":0,
			"byteLength":227244,
			"byteOffset":1049164,
			"target":34962
		},
		{
			"buffer":0,
			"byteLength":151496,
			"byteOffset":1276408,
			"target":34962
		},
		{
			"buffer":0,
			"byteLength":151496,
			"byteOffset":1427904,
			"target":34962
		},
		{
			"buffer":0,
			"byteLength":163056,
			"byteOffset":1579400,
			"target":34963
		},
		{
			"buffer":0,
			"byteLength":67800,
			"byteOffset":1742456,
			"target":34962
		},
		{
			"buffer":0,
			"byteLength":67800,
			"byteOffset":1810256,
			"target":34962
		},
		{
			"buffer":0,
			"byteLength":45200,
			"byteOffset":1878056,
			"target":34962
		},
		{
			"buffer":0,
			"byteLength":45200,
			"byteOffset":1923256,
			"target":34962
		},
		{
			"buffer":0,
			"byteLength":50496,
			"byteOffset":1968456,
			"target":34963
		},
		{
			"buffer":0,
			"byteLength":34452,
			"byteOffset":2018952,
			"target":34962
		},
		{
			"buffer":0,
			"byteLength":34452,
			"byteOffset":2053404,
			"target":34962
		},
		{
			"buffer":0,
			"byteLength":22968,
			"byteOffset":2087856,
			"target":34962
		},
		{
			"buffer":0,
			"byteLength":22968,
			"byteOffset":2110824,
			"target":34962
		},
		{
			"buffer":0,
			"byteLength":32082,
			"byteOffset":2133792,
			"target":34963
		},
		{
			"buffer":0,
			"byteLength":67944,
			"byteOffset":2165876,
			"target":34962
		},
		{
			"buffer":0,
			"byteLength":67944,
			"byteOffset":2233820,
			"target":34962
		},
		{
			"buffer":0,
			"byteLength":45296,
			"byteOffset":2301764,
			"target":34962
		},
		{
			"buffer":0,
			"byteLength":45296,
			"byteOffset":2347060,
			"target":34962
		},
		{
			"buffer":0,
			"byteLength":61596,
			"byteOffset":2392356,
			"target":34963
		},
		{
			"buffer":0,
			"byteLength":36948,
			"byteOffset":2453952,
			"target":34962
		},
		{
			"buffer":0,
			"byteLength":36948,
			"byteOffset":2490900,
			"target":34962
		},
		{
			"buffer":0,
			"byteLength":24632,
			"byteOffset":2527848,
			"target":34962
		},
		{
			"buffer":0,
			"byteLength":24632,
			"byteOffset":2552480,
			"target":34962
		},
		{
			"buffer":0,
			"byteLength":27288,
			"byteOffset":2577112,
			"target":34963
		},
		{
			"buffer":0,
			"byteLength":5880,
			"byteOffset":2604400,
			"target":34962
		},
		{
			"buffer":0,
			"byteLength":5880,
			"byteOffset":2610280,
			"target":34962
		},
		{
			"buffer":0,
			"byteLength":3920,
			"byteOffset":2616160,
			"target":34962
		},
		{
			"buffer":0,
			"byteLength":3920,
			"byteOffset":2620080,
			"target":34962
		},
		{
			"buffer":0,
			"byteLength":2364,
			"byteOffset":2624000,
			"target":34963
		},
		{
			"buffer":0,
			"byteLength":151440,
			"byteOffset":2626364,
			"target":34962
		},
		{
			"buffer":0,
			"byteLength":151440,
			"byteOffset":2777804,
			"target":34962
		},
		{
			"buffer":0,
			"byteLength":100960,
			"byteOffset":2929244,
			"target":34962
		},
		{
			"buffer":0,
			"byteLength":100960,
			"byteOffset":3030204,
			"target":34962
		},
		{
			"buffer":0,
			"byteLength":126720,
			"byteOffset":3131164,
			"target":34963
		}
	],
	"samplers":[
		{
			"magFilter":9729,
			"minFilter":9987
		}
	],
	"buffers":[
		{
			"byteLength":3257884,
			"uri":"Island.bin"
		}
	]
}
